#!OML:ASF H:\Terrain\Patient Classification 1\Terrain2\Thursday\justin.ASF
:FULLY-SPECIFIED
:DEGREES
2675
root 8.7712 17.8462 5.97378 1.912 -0.312751 -1.30032
lowerback 1.82218 -1.67282 1.05341
upperback 1.47257 -2.22979 3.85888
thorax 0.604026 -1.12824 3.40119
lowerneck -12.1793 0.0602578 -8.36059
upperneck 41.8085 2.64934 0.0135068
head 17.3384 -0.258387 1.97125
rclavicle 1.92821e-014 -3.97569e-015
rhumerus -37.0314 -16.8351 -72.2316
rradius 23.9633
rwrist -7.23611
rhand -19.1452 12.5685
rfingers 7.12502
rthumb 7.16499 -17.2903
lclavicle 1.92821e-014 -3.97569e-015
lhumerus -31.8695 0.785301 84.3198
lradius 38.392
lwrist 3.82322
lhand -16.8649 22.94
lfingers 7.12502
lthumb 9.36568 -307.288
rfemur -22.0945 -7.01474 25.8609
rtibia 22.1127
rfoot -5.71159 7.55584
rtoes 5.59984
lfemur 13.721 -2.40849 -19.2247
ltibia 22.535
lfoot 9.62277 -9.44173
ltoes -0.357826
2676
root 8.74834 17.8652 6.1301 1.80298 -0.40651 -1.56495
lowerback 1.84565 -1.60259 1.25118
upperback 1.49474 -2.13397 3.96526
thorax 0.60571 -1.07929 3.39952
lowerneck -12.1262 0.0538605 -8.43481
upperneck 41.6582 2.62887 0.0678716
head 17.2371 -0.262462 2.00302
rclavicle -1.74931e-014 -3.97569e-015
rhumerus -37.0051 -17.2742 -71.8857
rradius 23.5218
rwrist -6.81207
rhand -19.1973 13.1253
rfingers 7.12502
rthumb 7.11467 -16.7351
lclavicle -1.74931e-014 -3.97569e-015
lhumerus -32.3062 0.992579 84.4601
lradius 37.9839
lwrist 3.69896
lhand -17.0034 22.1263
lfingers 7.12502
lthumb 9.2321 -308.096
rfemur -21.2867 -7.08011 26.1919
rtibia 21.9438
rfoot -5.8969 7.99233
rtoes 5.53526
lfemur 12.5973 -2.2188 -18.6835
ltibia 25.0585
lfoot 11.8293 -9.068
ltoes 4.76944
2677
root 8.72277 17.8837 6.28497 1.75548 -0.523511 -1.87396
lowerback 1.78424 -1.56824 1.42218
upperback 1.50507 -2.08945 4.08931
thorax 0.647263 -1.05645 3.42935
lowerneck -12.1383 0.0823405 -8.37388
upperneck 41.5479 2.67686 0.00482846
head 17.1766 -0.23689 1.97008
rclavicle -1.0138e-014 -4.13472e-014
rhumerus -36.9224 -17.1353 -71.8559
rradius 23.3353
rwrist -6.81426
rhand -19.072 12.923
rfingers 7.12502
rthumb 7.23565 -16.9333
lclavicle -1.0138e-014 -4.13472e-014
lhumerus -32.6446 1.10097 84.5214
lradius 37.5697
lwrist 3.45927
lhand -15.2862 23.1406
lfingers 7.12502
lthumb 10.8887 -307.162
rfemur -20.5098 -7.04205 26.6042
rtibia 21.6328
rfoot -5.69217 8.13792
rtoes 6.49161
lfemur 11.3225 -2.00304 -18.1009
ltibia 27.6807
lfoot 13.7036 -9.11149
ltoes 7.9858
2678
root 8.70131 17.9022 6.43809 1.81053 -0.390773 -2.33463
lowerback 1.6212 -1.63947 1.76012
upperback 1.49843 -2.18825 4.27264
thorax 0.731687 -1.10407 3.42532
lowerneck -12.2245 0.136373 -8.24758
upperneck 41.4032 2.78377 -0.138064
head 17.1161 -0.187508 1.89981
rclavicle 2.28602e-015 -2.70347e-014
rhumerus -36.6786 -16.8937 -71.902
rradius 23.2019
rwrist -6.82998
rhand -18.7244 12.5644
rfingers 7.12502
rthumb 7.57112 -17.2801
lclavicle 2.28602e-015 -2.70347e-014
lhumerus -32.9912 1.27823 84.6151
lradius 37.2475
lwrist 3.20704
lhand -15.9176 22.1869
lfingers 7.12502
lthumb 10.2796 -308.084
rfemur -19.8206 -7.36591 27.1968
rtibia 21.2535
rfoot -5.60193 8.39634
rtoes 7.35418
lfemur 9.93647 -1.97763 -17.3562
ltibia 30.2802
lfoot 15.9831 -9.15557
ltoes 10.468
2679
root 8.67979 17.9235 6.58606 1.97156 -0.149241 -2.84476
lowerback 1.41457 -1.64081 2.26597
upperback 1.45137 -2.19346 4.42709
thorax 0.786968 -1.10245 3.29564
lowerneck -12.3316 0.0932949 -8.3365
upperneck 41.2921 2.69826 0.00422247
head 17.0794 -0.211598 1.96581
rclavicle 1.85864e-014 -1.19271e-014
rhumerus -36.5194 -17.2213 -71.6798
rradius 22.9393
rwrist -6.42708
rhand -18.5109 13.2188
rfingers 7.12502
rthumb 7.7772 -16.6181
lclavicle 1.85864e-014 -1.19271e-014
lhumerus -33.4116 0.895139 85.0613
lradius 36.8411
lwrist 4.54075
lhand -18.6594 19.6691
lfingers 7.12502
lthumb 7.63387 -310.489
rfemur -19.3001 -7.60453 27.8054
rtibia 20.8914
rfoot -5.54689 8.67966
rtoes 8.92598
lfemur 8.37081 -2.01723 -16.5125
ltibia 32.8267
lfoot 16.978 -9.74487
ltoes 8.65303
2680
root 8.6544 17.9554 6.73714 1.9041 0.0408586 -2.96733
lowerback 1.3962 -1.59604 2.34382
upperback 1.48604 -2.13572 4.44696
thorax 0.828542 -1.07282 3.2711
lowerneck -12.4497 -0.00623803 -8.51831
upperneck 41.2417 2.48344 0.330678
head 17.0808 -0.28041 2.11086
rclavicle -3.45885e-014 6.36111e-015
rhumerus -36.3579 -17.6587 -71.493
rradius 22.7207
rwrist -5.80788
rhand -18.514 13.5104
rfingers 7.12502
rthumb 7.77421 -16.3267
lclavicle -3.45885e-014 6.36111e-015
lhumerus -33.5487 1.17461 84.8983
lradius 36.4246
lwrist 2.31286
lhand -16.3486 21.2311
lfingers 7.12502
lthumb 9.86383 -309.02
rfemur -18.4941 -7.34144 27.8516
rtibia 20.4551
rfoot -5.20652 8.62241
rtoes 12.7639
lfemur 7.01242 -2.08507 -16.1274
ltibia 35.3643
lfoot 18.141 -10.5459
ltoes 8.16336
2681
root 8.63052 17.984 6.89032 1.61195 0.206995 -3.02859
lowerback 1.59594 -1.5986 2.30331
upperback 1.55005 -2.13222 4.45777
thorax 0.78413 -1.07176 3.31021
lowerneck -12.4827 -0.0702463 -8.66015
upperneck 41.196 2.31577 0.613925
head 17.0629 -0.329814 2.23584
rclavicle 4.57205e-015 -7.95139e-016
rhumerus -36.2313 -17.4821 -71.6282
rradius 22.8262
rwrist -5.71524
rhand -18.4896 12.5332
rfingers 7.12502
rthumb 7.79776 -17.303
lclavicle 4.57205e-015 -7.95139e-016
lhumerus -33.8058 0.913712 85.0801
lradius 35.9687
lwrist 2.61416
lhand -16.7423 21.1924
lfingers 7.12502
lthumb 9.48402 -309.041
rfemur -17.3107 -7.12429 27.8108
rtibia 19.8105
rfoot -4.75332 8.47034
rtoes 15.7425
lfemur 5.92549 -2.14409 -15.8529
ltibia 37.9228
lfoot 19.121 -11.3671
ltoes 9.21399
2682
root 8.60827 17.994 7.03409 1.38783 0.320115 -3.30851
lowerback 1.86283 -1.59265 2.50739
upperback 1.52724 -2.10628 4.52392
thorax 0.605381 -1.05738 3.27276
lowerneck -12.4619 -0.120854 -8.6057
upperneck 41.2189 2.22497 0.603146
head 17.0769 -0.360544 2.20613
rclavicle 5.86415e-015 1.90833e-014
rhumerus -36.3183 -17.0538 -71.8018
rradius 23.1263
rwrist -6.00188
rhand -18.6339 11.7414
rfingers 7.12502
rthumb 7.65854 -18.1
lclavicle 5.86415e-015 1.90833e-014
lhumerus -34.2451 0.686938 85.2702
lradius 35.6446
lwrist 3.02134
lhand -16.9622 20.7725
lfingers 7.12502
lthumb 9.27183 -309.451
rfemur -16.1634 -7.09254 28.1193
rtibia 19.0709
rfoot -4.43879 8.31541
rtoes 16.4867
lfemur 4.65739 -2.11759 -15.3329
ltibia 40.4698
lfoot 20.0019 -11.8606
ltoes 10.8938
2683
root 8.58645 17.9974 7.17351 1.18619 0.422779 -3.6858
lowerback 2.10945 -1.54149 2.83154
upperback 1.52142 -2.01853 4.59431
thorax 0.449451 -1.01126 3.17047
lowerneck -12.4498 -0.198211 -8.34199
upperneck 41.1886 2.11867 0.374031
head 17.0714 -0.392208 2.03675
rclavicle 2.98177e-016 -3.89618e-014
rhumerus -36.386 -16.8109 -71.9157
rradius 23.3528
rwrist -6.2841
rhand -18.9433 11.7624
rfingers 7.12502
rthumb 7.35984 -18.0896
lclavicle 2.98177e-016 -3.89618e-014
lhumerus -34.5734 0.479947 85.4007
lradius 35.3735
lwrist 2.67919
lhand -16.9864 20.63
lfingers 7.12502
lthumb 9.24847 -309.593
rfemur -15.0487 -6.93138 28.5379
rtibia 18.3392
rfoot -4.27194 8.01618
rtoes 17.1843
lfemur 3.31458 -2.12443 -14.6979
ltibia 42.975
lfoot 20.6516 -12.0909
ltoes 12.8108
2684
root 8.56564 18.0015 7.31252 0.99646 0.56676 -4.30462
lowerback 2.21799 -1.47492 3.44431
upperback 1.55242 -1.91399 4.70456
thorax 0.401369 -0.954445 2.94263
lowerneck -12.259 -0.243627 -8.15353
upperneck 40.9271 1.97922 0.33264
head 16.8843 -0.411231 1.95496
rclavicle -8.94531e-015 -2.62396e-014
rhumerus -36.3417 -16.7855 -72.0082
rradius 23.5067
rwrist -6.44651
rhand -19.1234 11.9215
rfingers 7.12502
rthumb 7.18599 -17.9365
lclavicle -8.94531e-015 -2.62396e-014
lhumerus -34.8273 0.296312 85.4827
lradius 35.107
lwrist 1.91164
lhand -16.7447 20.3724
lfingers 7.12502
lthumb 9.4817 -309.861
rfemur -13.9134 -6.79951 29.2239
rtibia 17.576
rfoot -4.09625 7.81207
rtoes 17.4701
lfemur 2.09334 -2.13809 -13.7859
ltibia 45.3911
lfoot 20.4975 -12.2049
ltoes 14.0545
2685
root 8.54176 18.0135 7.44654 0.872305 0.654127 -4.91311
lowerback 2.33987 -1.40532 3.98461
upperback 1.56669 -1.80344 4.85765
thorax 0.334091 -0.895877 2.8005
lowerneck -12.1524 -0.314712 -8.24546
upperneck 40.779 1.83401 0.456949
head 16.7801 -0.45955 1.99967
rclavicle -2.48481e-015 -3.18055e-015
rhumerus -36.2042 -16.9267 -71.9793
rradius 23.6099
rwrist -6.34285
rhand -18.9285 12.2853
rfingers 7.12502
rthumb 7.37421 -17.5662
lclavicle -2.48481e-015 -3.18055e-015
lhumerus -34.963 0.262032 85.5201
lradius 34.6816
lwrist 0.591433
lhand -15.1825 20.3714
lfingers 7.12502
lthumb 10.9887 -309.936
rfemur -12.8712 -6.54185 29.949
rtibia 16.8942
rfoot -4.1118 7.56788
rtoes 15.4574
lfemur 0.907521 -2.00539 -12.8884
ltibia 47.6015
lfoot 19.4067 -12.155
ltoes 12.4016
2686
root 8.52016 18.0264 7.57751 0.679857 0.745027 -5.29421
lowerback 2.54447 -1.37706 4.32202
upperback 1.63619 -1.74771 4.9316
thorax 0.282815 -0.865818 2.69226
lowerneck -12.2471 -0.441547 -8.37898
upperneck 40.7627 1.66048 0.537611
head 16.8049 -0.540326 2.03118
rclavicle -5.00937e-014 9.85972e-014
rhumerus -35.9193 -16.7652 -72.1491
rradius 23.7015
rwrist -6.4473
rhand -18.7468 12.5871
rfingers 7.12502
rthumb 7.54957 -17.2581
lclavicle -5.00937e-014 9.85972e-014
lhumerus -34.9527 0.147305 85.5985
lradius 34.1585
lwrist -0.0204933
lhand -13.5659 20.9155
lfingers 7.12502
lthumb 12.5477 -309.481
rfemur -11.8856 -6.192 30.3959
rtibia 16.4024
rfoot -4.3175 7.17728
rtoes 14.2607
lfemur -0.281374 -1.90946 -12.2321
ltibia 49.6152
lfoot 18.2441 -11.7943
ltoes 11.4621
2687
root 8.50575 18.0295 7.71257 0.361463 0.941292 -5.66993
lowerback 2.71202 -1.42639 4.74888
upperback 1.76811 -1.79925 4.94217
thorax 0.313804 -0.886993 2.46935
lowerneck -12.3032 -0.462272 -8.33743
upperneck 40.7406 1.58275 0.636877
head 16.808 -0.551693 2.05556
rclavicle 6.16232e-015 1.19271e-014
rhumerus -35.5466 -16.0651 -72.672
rradius 23.8205
rwrist -7.07541
rhand -18.9777 12.4799
rfingers 7.12502
rthumb 7.32665 -17.3733
lclavicle 6.16232e-015 1.19271e-014
lhumerus -35.0985 0.00371866 85.6555
lradius 33.839
lwrist 0.276545
lhand -12.3386 21.8487
lfingers 7.12502
lthumb 13.7307 -308.624
rfemur -10.8506 -6.24422 30.7695
rtibia 15.9851
rfoot -4.59424 7.09611
rtoes 16.0206
lfemur -1.36538 -2.03142 -11.6228
ltibia 51.4787
lfoot 17.2075 -11.2607
ltoes 12.1566
2688
root 8.48914 18.0305 7.84554 0.108634 1.05715 -6.06346
lowerback 2.89305 -1.42122 5.10796
upperback 1.82837 -1.77244 5.00752
thorax 0.26644 -0.870955 2.3408
lowerneck -12.3381 -0.468462 -8.3813
upperneck 40.8547 1.51975 0.828523
head 16.8783 -0.561978 2.14178
rclavicle -2.6339e-014 5.00937e-014
rhumerus -35.3049 -15.2154 -73.1666
rradius 24.137
rwrist -7.8716
rhand -19.3588 12.154
rfingers 7.12502
rthumb 6.95877 -17.7117
lclavicle -2.6339e-014 5.00937e-014
lhumerus -35.3748 -0.0887763 85.7653
lradius 33.6507
lwrist 0.639734
lhand -12.909 21.4842
lfingers 7.12502
lthumb 13.1809 -308.952
rfemur -9.90323 -6.16068 31.1587
rtibia 15.496
rfoot -4.7599 7.06305
rtoes 18.043
lfemur -2.4344 -1.99299 -11.0316
ltibia 53.2528
lfoot 15.6173 -11.3063
ltoes 9.51746
2689
root 8.46951 18.0397 7.97386 -0.0585064 1.06241 -6.30332
lowerback 3.08023 -1.33618 5.22793
upperback 1.85677 -1.64128 5.08928
thorax 0.189887 -0.805617 2.35969
lowerneck -12.4208 -0.55948 -8.47319
upperneck 40.9542 1.40157 0.888403
head 16.9626 -0.61984 2.16824
rclavicle 1.25234e-014 -4.53229e-014
rhumerus -35.1085 -15.0639 -73.2581
rradius 24.4579
rwrist -7.9222
rhand -19.525 12.0321
rfingers 7.12502
rthumb 6.79839 -17.8387
lclavicle 1.25234e-014 -4.53229e-014
lhumerus -35.5465 -0.0471455 85.9268
lradius 33.4251
lwrist 1.06574
lhand -15.6583 19.803
lfingers 7.12502
lthumb 10.5298 -310.481
rfemur -8.99516 -5.86508 31.4382
rtibia 14.9557
rfoot -4.76447 6.81051
rtoes 18.3252
lfemur -3.62328 -1.69789 -10.5719
ltibia 54.9142
lfoot 13.8804 -11.7843
ltoes 5.4349
